<svg width="909" height="453" xmlns="http://www.w3.org/2000/svg" data-name="Layer 1">

 <g>
  <title>Layer 1</title>
  <rect id="svg_7" fill="#f0f0f0" height="122.40757" width="412.92155" y="320.29982" x="338.809"/>
  <rect id="svg_8" fill="#cacaca" height="97.11001" width="48.14698" y="345.59739" x="521.19629"/>
  <rect id="svg_9" fill="#f0f0f0" height="112.61497" width="364.77457" y="175.85888" x="362.88249"/>
  <path id="svg_10" fill="#cacaca" d="m764.63873,182.79531l-438.73791,0a3.67218,3.67218 0 0 1 -2.54478,-6.31961l119.90743,-115.256l0,-50.20302a3.67637,3.67637 0 0 1 3.67222,-3.67223l23.66547,0a3.67624,3.67624 0 0 1 3.67222,3.67223l0,20.39648l9.05685,-8.7056a81.37343,81.37343 0 0 1 110.80037,-1.84249l172.96346,155.52693a3.67254,3.67254 0 0 1 -2.45533,6.40329l0,0.00002z"/>
  <path id="svg_11" fill="#fff" d="m459.17643,204.42065l0,0a23.25742,23.25742 0 0 1 23.25742,23.25742l0,31.418a0,0 0 0 1 0,0l-46.51485,0a0,0 0 0 1 0,0l0,-31.418a23.25742,23.25742 0 0 1 23.25743,-23.25742z"/>
  <path id="svg_12" fill="#fff" d="m545.26975,204.82867l0,0a23.25742,23.25742 0 0 1 23.25742,23.25742l0,31.418a0,0 0 0 1 0,0l-46.51483,0a0,0 0 0 1 0,0l0,-31.418a23.25742,23.25742 0 0 1 23.25741,-23.25742z"/>
  <path id="svg_13" fill="#fff" d="m631.36308,205.2367l0,0a23.25742,23.25742 0 0 1 23.25742,23.25742l0,31.418a0,0 0 0 1 0,0l-46.51483,0a0,0 0 0 1 0,0l0,-31.418a23.25742,23.25742 0 0 1 23.25741,-23.25742z"/>
  <path id="svg_14" fill="#fff" d="m665.6372,344.37331l0,0a23.25742,23.25742 0 0 1 23.25742,23.25742l0,31.418a0,0 0 0 1 0,0l-46.51483,0a0,0 0 0 1 0,0l0,-31.418a23.25742,23.25742 0 0 1 23.25741,-23.25742z"/>
  <path id="svg_15" fill="#fff" d="m435.511,344.37331l0,0a23.25742,23.25742 0 0 1 23.25742,23.25742l0,31.418a0,0 0 0 1 0,0l-46.51487,0a0,0 0 0 1 0,0l0,-31.418a23.25742,23.25742 0 0 1 23.25745,-23.25742z"/>
  <path id="svg_16" fill="#cacaca" d="m812.05673,322.21109l-77.45945,-34.27409a3.26366,3.26366 0 0 0 -1.32071,-0.27917l-369.15885,0a3.26264,3.26264 0 0 0 -1.22925,0.24027l-84.31459,34.27412a3.26423,3.26423 0 0 0 1.22925,6.28813l21.87557,0l0,112.615l-2.44815,0l0,11.42465l492.07845,0l0,-11.42471l-4.08025,0l0,-112.615l23.50725,0a3.26418,3.26418 0 0 0 1.32073,-6.2492zm-31.35638,118.8642l-472.49324,0l0,-112.615l472.49324,0l0,112.615z"/>
  <rect id="svg_17" fill="#cacaca" height="9.79261" width="59.57169" y="254.60775" x="428.57456"/>
  <rect id="svg_18" fill="#cacaca" height="9.79261" width="59.57169" y="254.60775" x="515.89196"/>
  <rect id="svg_19" fill="#cacaca" height="9.79261" width="59.57169" y="254.60775" x="603.20936"/>
  <rect id="svg_20" fill="#cacaca" height="9.79261" width="59.57169" y="395.78449" x="635.85138"/>
  <rect id="svg_21" fill="#cacaca" height="9.79261" width="59.57169" y="395.78449" x="404.90909"/>
  <path id="svg_23" fill="#f0f0f0" d="m679.86648,174.17993c0,0.64014 -0.01,1.29 -0.02,1.93006c-0.01,0.77 -0.03,1.53 -0.06006,2.29992c-0.02979,0.67005 -0.06006,1.33008 -0.09986,1.99c-0.12011,2.21009 -0.31005,4.41016 -0.57006,6.62012c-0.06006,0.55994 -0.12989,1.11 -0.21,1.66992c-0.06006,0.43006 -0.12012,0.87012 -0.18995,1.31006c-0.07006,0.49 -0.14013,0.98 -0.22021,1.47q-0.23986,1.56006 -0.54,3.12c-0.09985,0.52 -0.19971,1.04 -0.30981,1.55993c-0.21,1.03 -0.44019,2.07007 -0.67994,3.1001c-0.02,0.08 -0.04,0.16992 -0.06005,0.25c-0.12012,0.51 -0.24,1.01 -0.37012,1.52c-0.04,0.1499 -0.06983,0.29 -0.11987,0.43994c-0.09009,0.38 -0.19019,0.76 -0.29,1.14c-0.1399,0.53 -0.28,1.04992 -0.42994,1.57995c-0.24023,0.82007 -0.48,1.63013 -0.73,2.45007a2.58139,2.58139 0 0 0 -0.08007,0.26c-0.48,1.54993 -0.99,3.08 -1.55,4.6c-0.29,0.8 -0.59986,1.61 -0.90992,2.40991c-0.31,0.8 -0.63012,1.6001 -0.96,2.39014c-0.32006,0.77 -0.65014,1.53992 -0.98,2.29993c-0.08007,0.18 -0.16015,0.36 -0.25,0.54c-0.35009,0.78992 -0.7102,1.55994 -1.08007,2.33c-0.01,0.01 -0.01,0.03 -0.02,0.04c-0.29,0.62 -0.6001,1.24 -0.91016,1.85a0.07467,0.07467 0 0 1 -0.02,0.04992c-0.2998,0.6001 -0.60986,1.20008 -0.92993,1.79l-0.51,0.97l-0.06006,0.11011c-0.63989,1.18994 -1.2998,2.37 -2,3.54c-0.1499,0.26 -0.2998,0.5199 -0.44971,0.7699c-0.15014,0.26 -0.31006,0.52 -0.47021,0.77q-0.14979,0.27007 -0.33008,0.54c-0.21,0.34 -0.41992,0.69 -0.63989,1.02991c-0.04,0.07007 -0.09009,0.14014 -0.12989,0.21008c-0.38012,0.59 -0.76,1.17005 -1.14013,1.76c-0.47,0.71 -0.95,1.41 -1.43994,2.11l-10.86011,17.38l-0.47,-0.39l-0.12988,-0.12l-0.01,0l-0.43018,-0.36l-1.17993,-1c-0.35986,0.35 -0.71,0.7 -1.07007,1.04c-0.13989,0.13989 -0.28979,0.27 -0.42993,0.40991c-0.10986,0.1001 -0.21,0.2 -0.32007,0.3a104.718,104.718 0 0 1 -69.98,29.75l-0.02979,0a114.29827,114.29827 0 0 1 -57.03,-13.46c-0.39014,-0.20007 -0.77,-0.40015 -1.15015,-0.63013c-2.27979,-1.24 -4.50977,-2.54992 -6.7,-3.95c-0.01,-0.01 -0.02,-0.01 -0.03,-0.02q-3.81006,-2.70008 -7.43994,-5.76a109.92718,109.92718 0 0 1 -38.92993,-89.79c0.03,-0.67 0.07006,-1.32995 0.11987,-2q0.24023,-3.63 0.74,-7.23c0.09009,-0.67 0.19018,-1.34 0.29,-2l213.78,0q0.62988,4.59 0.87011,9.23c0.09988,1.93032 0.14993,3.85032 0.14993,5.78025z"/>
  <path id="svg_24" fill="#d77866" d="m678.84646,159.17a108.09184,108.09184 0 0 0 -213.78,0c-0.09986,0.66 -0.19995,1.33 -0.29,2q-0.49476,3.6 -0.74,7.23l215.68011,0q-0.24022,-4.635 -0.87011,-9.23z"/>
  <path id="svg_25" fill="#d77866" d="m578.95886,270.54669l-61.93762,0l0,-49.54644c1.14284,-22.64294 20.49578,-24.47138 38.68036,-23.25619a23.25555,23.25555 0 0 1 23.25726,23.25619l0,49.54644z"/>
  <path id="svg_26" fill="#6c9c8e" d="m517.01638,235.32007l0,0.00993c0,0.01 0.01,0.01 0.02,0.01l-0.02,-0.01993zm-24.90991,-76.15007c-0.04,0.25 -0.09009,0.5 -0.13013,0.75c0.04,-0.25 0.09009,-0.5 0.14014,-0.75l-0.01001,0zm-1.24,9.23c-0.03,0.38 -0.06006,0.76 -0.08008,1.14q0.03,-0.57 0.09009,-1.14a1.47492,1.47492 0 0 1 0.01,-0.21c-0.00999,0.07 -0.00999,0.14 -0.02,0.21l-0.00001,0zm26.1499,66.93c0,0.01 0.01,0.01 0.02,0.01l-0.02,-0.0199l0,0.0099zm-24.90991,-76.16c-0.04,0.25 -0.09009,0.5 -0.13013,0.75c0.04,-0.25 0.09009,-0.5 0.14014,-0.75l-0.01001,0zm-1.32007,10.37q0.03,-0.57 0.09009,-1.14a1.47492,1.47492 0 0 1 0.01,-0.21c-0.01,0.07 -0.01,0.14 -0.02,0.21c-0.03003,0.38 -0.06006,0.76 -0.08008,1.14l-0.00001,0zm308.93995,183.96a6.77183,6.77183 0 0 0 -0.61987,-0.58008l-0.01,-0.01l-49.52,-41.78991l-1.28,-1.08l-4.86988,-4.11011l-1.22021,-1.03l-6.94,-5.8599l-1.8999,-1.6001l-3.92994,-3.3199l-2.01,-1.70008l-18.96,-15.99l-10.87008,-9.16992l-1.46,-1.23l-32.03,-27.03c0.49,-0.7 0.97,-1.4 1.43994,-2.11c0.38012,-0.59 0.76,-1.17 1.14013,-1.76c0.0398,-0.06994 0.08985,-0.14 0.12989,-0.21008c0.22,-0.34 0.42993,-0.68994 0.63989,-1.02991q0.18018,-0.27007 0.33008,-0.54c0.16015,-0.25 0.32007,-0.51 0.47021,-0.77c0.14991,-0.25 0.29981,-0.50989 0.44971,-0.7699c0.7002,-1.17005 1.36011,-2.3501 2,-3.54l0.06006,-0.11011l0.51,-0.97c0.32007,-0.59 0.63013,-1.18994 0.92993,-1.79a0.07467,0.07467 0 0 0 0.02,-0.04992c0.31006,-0.61 0.62012,-1.23 0.91016,-1.85c0.01,-0.01 0.01,-0.03 0.02,-0.04c0.36987,-0.77 0.73,-1.54 1.08007,-2.33c0.08985,-0.18 0.16993,-0.36 0.25,-0.54c0.32984,-0.76 0.65992,-1.52991 0.98,-2.29993c0.32984,-0.79 0.64991,-1.59009 0.96,-2.39014c0.31006,-0.79992 0.61988,-1.60986 0.90992,-2.40991q0.82507,-2.295 1.55,-4.6a2.58139,2.58139 0 0 1 0.08007,-0.26c0.25,-0.81994 0.48975,-1.63 0.73,-2.45007c0.14991,-0.53 0.29,-1.04993 0.42994,-1.57995c0.09985,-0.38 0.2,-0.76 0.29,-1.14c0.05,-0.1499 0.07983,-0.29 0.11987,-0.43994c0.13013,-0.51 0.25,-1.01 0.37012,-1.52c0.02,-0.08008 0.04,-0.17 0.06005,-0.25c0.23975,-1.03 0.47,-2.07007 0.67994,-3.1001c0.1101,-0.5199 0.21,-1.03991 0.30981,-1.55993c0.19019,-1.03992 0.38013,-2.08 0.54,-3.12c0.08008,-0.49 0.15015,-0.98 0.22021,-1.47c0.06983,-0.43994 0.12989,-0.88 0.18995,-1.31006c0.08007,-0.55994 0.1499,-1.11 0.21,-1.66992c0.26,-2.21 0.44995,-4.41 0.57006,-6.62012c0.0398,-0.65991 0.07007,-1.31994 0.09986,-1.99c0.03,-0.7699 0.05005,-1.52991 0.06006,-2.29992c0.01,-0.64 0.02,-1.28992 0.02,-1.93006c0,-1.92993 -0.05005,-3.85 -0.14991,-5.78q-0.24023,-4.63494 -0.87011,-9.23a110.05211,110.05211 0 0 0 -217.78,-2c-0.09986,0.66 -0.19995,1.33 -0.29,2q-0.49476,3.6 -0.74,7.23c-0.04981,0.67005 -0.08985,1.33 -0.11987,2a109.92718,109.92718 0 0 0 38.92993,89.79q3.62988,3.06006 7.43994,5.76c0.01,0.01 0.02,0.01 0.03,0.02c0.8501,0.6001 1.7,1.18994 2.56006,1.77c1.36987,0.9 2.75,1.78 4.13989,2.62c0.11011,0.05993 0.22021,0.13 0.33008,0.19006c1.2,0.72 2.41015,1.40991 3.62011,2.07995l0.00977,0a108.15267,108.15267 0 0 0 13.99023,6.44007a110.38385,110.38385 0 0 0 44.23,6.93994l0.02979,0a109.76088,109.76088 0 0 0 49.91016,-14.77c2.21,-1.28 4.38989,-2.65 6.52,-4.11c0.53,-0.36 1.06982,-0.7301 1.58984,-1.1c0.64014,-0.45007 1.28,-0.92 1.92017,-1.39c0.01,0 0.01,-0.01 0.02,-0.01a1.42983,1.42983 0 0 1 0.14991,-0.11c0.42993,-0.33008 0.86987,-0.66 1.29,-0.98c0.1101,-0.08008 0.22,-0.16 0.32983,-0.25a0.48138,0.48138 0 0 0 0.08008,-0.07007c0.25,-0.17993 0.49,-0.38 0.74,-0.57007c0.25,-0.18994 0.49,-0.38989 0.74,-0.58984a0.9391,0.9391 0 0 0 0.12012,-0.09009c0.28,-0.23 0.56005,-0.45 0.83984,-0.67993c0.29,-0.23 0.57007,-0.47 0.84009,-0.70007c0.28,-0.23 0.55005,-0.46 0.83008,-0.7c0.24,-0.20007 0.49,-0.41 0.73,-0.63c0.07983,-0.06006 0.1499,-0.13 0.23,-0.2a0.71346,0.71346 0 0 1 0.09985,-0.08008c0.33008,-0.28 0.65015,-0.57007 0.97021,-0.86c0.08008,-0.07 0.14991,-0.14 0.23,-0.21009c0.49,-0.43994 0.98,-0.87988 1.46,-1.33984c0.10986,-0.1001 0.23,-0.21008 0.33984,-0.31006c0.11011,-0.1001 0.21021,-0.2 0.32007,-0.3c0.14014,-0.13989 0.29,-0.27 0.42993,-0.40991c0.36011,-0.34009 0.71021,-0.69006 1.07007,-1.04l1.17993,1l0.43018,0.36l0.01,0l0.12988,0.12l0.47,0.39l6.98,5.9l0.15015,0.12988l0.11987,0.09009l0.79,0.66992l1.58008,1.34009l1.58007,1.33l0.23,0.19006l7.34986,6.2l1.02,0.86l7.09009,5.9801l36.7,30.97l1.28,1.08l50.23,42.38l12.87988,10.87l4.79,4.03991a10.13315,10.13315 0 0 0 14.29,-1.19995a9.84215,9.84215 0 0 0 1.68994,-2.84a10.09075,10.09075 0 0 0 -2.26998,-10.8701zm-289.66992,-231.81a82.447,82.447 0 0 1 143.95019,37.48c0.12989,0.67 0.25,1.33 0.35987,2c0.40991,2.39 0.71,4.81 0.89013,7.23c0.04981,0.67005 0.09986,1.33 0.12989,2c0.08984,1.5 0.12988,3.01 0.12988,4.51a82.07827,82.07827 0 0 1 -4.46,26.74l0,0.01a82.00716,82.00716 0 0 1 -14.97,26.38013c-0.1399,0.15991 -0.28,0.33 -0.42993,0.49c-1.32007,1.55994 -2.71,3.05994 -4.14014,4.49c-0.00977,0.01 -0.02,0.03 -0.02979,0.04c-0.49023,0.49 -0.99023,0.99 -1.49023,1.45c-1.02,0.99 -2.05982,1.92993 -3.11987,2.83q-2.38514,2.085 -4.8899,3.91c-0.56006,0.40991 -1.12011,0.81006 -1.69018,1.21c-0.55982,0.4 -1.12988,0.78 -1.7,1.16c-1.14014,0.76 -2.3,1.49 -3.47,2.18c-0.58008,0.34985 -1.17994,0.68994 -1.77,1.02c-0.59009,0.33984 -1.18994,0.65991 -1.79,0.97c-0.59986,0.32 -1.19995,0.62988 -1.80982,0.92993c-1.2102,0.61 -2.43017,1.17993 -3.67016,1.71q-0.92982,0.42 -1.86011,0.78c-0.38989,0.16 -0.77,0.32007 -1.15991,0.46a3.761,3.761 0 0 1 -0.47,0.18006q-0.31494,0.13494 -0.62989,0.24a1.81589,1.81589 0 0 1 -0.21,0.07995c-0.43017,0.17005 -0.85009,0.32007 -1.29,0.47009c-0.63012,0.23 -1.26025,0.44 -1.90014,0.64c-0.6399,0.21 -1.27,0.40991 -1.90991,0.59c-0.64014,0.20007 -1.29,0.38 -1.93018,0.54992c-0.6499,0.18006 -1.2898,0.3501 -1.93994,0.5c-0.68994,0.18006 -1.37988,0.34009 -2.08008,0.49c-0.60986,0.14014 -1.21,0.26 -1.81982,0.37012c-0.57007,0.11987 -1.14991,0.22 -1.72,0.32c-0.8,0.14 -1.6001,0.27 -2.40992,0.38c-0.44018,0.07007 -0.87011,0.13 -1.31006,0.16992c-0.18994,0.03 -0.37011,0.05 -0.55,0.07007c-0.56006,0.08008 -1.12012,0.14 -1.67017,0.18994c-0.1499,0.01 -0.2898,0.03 -0.42993,0.04c-0.60987,0.06006 -1.23,0.11011 -1.84009,0.16c-1.30981,0.09 -2.60986,0.15 -3.91992,0.18c-0.65991,0.01 -1.33008,0.02 -1.99,0.02s-1.32007,-0.01 -1.98,-0.03c0,0 0,0.01 -0.01,0c-0.01,0.01 -0.01,0.01 -0.02,0a0.01386,0.01386 0 0 1 -0.02,0a0.16975,0.16975 0 0 1 -0.09985,0c-0.47,0 -0.94019,-0.02 -1.40015,-0.05c-0.33985,-0.01 -0.68994,-0.02 -1.04,-0.05q-0.7046,-0.03 -1.40991,-0.09c-0.1499,0 -0.3,-0.0199 -0.44995,-0.02991a1.48637,1.48637 0 0 1 -0.21,-0.02c-0.48,-0.04 -0.97,-0.08008 -1.4502,-0.13013c-0.23975,-0.0199 -0.48975,-0.03991 -0.73,-0.06994c-0.73,-0.08 -1.46,-0.17005 -2.17993,-0.2699c-0.82007,-0.1001 -1.63989,-0.22009 -2.45,-0.37012c-0.37989,-0.05 -0.75,-0.12 -1.12012,-0.18994q-0.73463,-0.12012 -1.46973,-0.27c-0.51025,-0.1 -1.02,-0.2 -1.53027,-0.32007c-0.40991,-0.09 -0.82983,-0.17993 -1.23975,-0.27991c-0.20019,-0.04 -0.40014,-0.09 -0.59008,-0.14c-1.05005,-0.25 -2.09009,-0.52 -3.12012,-0.82007c-0.6499,-0.17993 -1.3,-0.36987 -1.93994,-0.56994c-0.88013,-0.27 -1.75,-0.55994 -2.61988,-0.87c-0.34008,-0.11 -0.67016,-0.23 -1.01025,-0.36c-0.33984,-0.11 -0.66992,-0.24 -1.00977,-0.37c-0.31005,-0.11011 -0.62011,-0.23 -0.92016,-0.3501c-0.5,-0.18994 -0.99,-0.38989 -1.48,-0.58984c-1.01,-0.41016 -2,-0.84009 -2.99,-1.3c-0.56006,-0.27 -1.11988,-0.53 -1.66992,-0.8q-3.25489,-1.57507 -6.41016,-3.5c-0.52,-0.31006 -1.0398,-0.64 -1.55981,-0.97c-0.65015,-0.4 -1.28,-0.82007 -1.90992,-1.24c-0.35009,-0.24 -0.69018,-0.47 -1.03027,-0.71c-0.62988,-0.44006 -1.25,-0.89014 -1.85986,-1.34009c-0.32007,-0.23 -0.64014,-0.47 -0.95,-0.71c-1.11011,-0.84009 -2.2,-1.72 -3.27,-2.62c-0.51,-0.43 -1.02,-0.87 -1.52,-1.31994c-0.21,-0.18006 -0.42017,-0.37012 -0.63013,-0.56006c-0.23975,-0.22 -0.48,-0.42993 -0.71,-0.66l-0.02,-0.0199c-0.34985,-0.31006 -0.7,-0.64014 -1.04,-0.97009c-0.52979,-0.5 -1.04981,-1.01 -1.54981,-1.52991c-0.52,-0.51 -1.02,-1.04 -1.51,-1.56006c-0.5,-0.52 -0.98,-1.05 -1.45,-1.59009q-0.72,-0.79486 -1.41015,-1.61987c-0.45,-0.52 -0.88989,-1.06006 -1.31006,-1.59009q-1.53,-1.89 -2.91992,-3.85c-0.42993,-0.6 -0.83985,-1.20008 -1.24,-1.80994c-0.42993,-0.62012 -0.84009,-1.25 -1.23,-1.88013c-0.40992,-0.62988 -0.8,-1.27 -1.17994,-1.91992a0.20915,0.20915 0 0 0 -0.04,-0.06006c-0.75,-1.27 -1.47,-2.54993 -2.14014,-3.85q-1.03491,-1.97992 -1.94995,-4c-0.30982,-0.67005 -0.60987,-1.35 -0.88989,-2.02991c-0.58008,-1.37012 -1.12012,-2.74 -1.62012,-4.13013c-0.25,-0.66992 -0.48,-1.34 -0.71,-2.02a0.49523,0.49523 0 0 0 -0.04,-0.12988c-0.46,-1.38013 -0.87988,-2.77 -1.25,-4.17c-0.01,-0.02 -0.01,-0.03992 -0.02,-0.05994c-0.18994,-0.69006 -0.36987,-1.38013 -0.52979,-2.08008c-0.16015,-0.61 -0.3,-1.22 -0.43017,-1.84c-0.1499,-0.69006 -0.29981,-1.38 -0.42993,-2.07995c-0.07007,-0.36011 -0.1399,-0.72009 -0.2,-1.08008c-0.06,-0.3 -0.1101,-0.61 -0.16015,-0.90991c-0.04981,-0.3 -0.09985,-0.61011 -0.1499,-0.92005q-0.15015,-0.915 -0.27,-1.82995c-0.1001,-0.72009 -0.17993,-1.44006 -0.26,-2.17005c-0.09009,-0.87 -0.16992,-1.74011 -0.24,-2.62c-0.05,-0.59009 -0.08008,-1.19006 -0.10987,-1.79c-0.03027,-0.55 -0.06006,-1.1 -0.07006,-1.65a0.13853,0.13853 0 0 1 0,-0.09a0.01386,0.01386 0 0 1 0,-0.02c-0.01,-0.01 -0.01,-0.01 0,-0.02a0.01386,0.01386 0 0 1 0,-0.02c-0.01,-0.22 -0.02,-0.43994 -0.02,-0.65991q-0.03,-0.975 -0.03,-1.95c0,-0.59009 0.01,-1.17011 0.02,-1.76007q0.03,-1.23 0.08984,-2.46c0,-0.18 0.02,-0.35 0.03027,-0.53c0.00977,-0.18 0.01978,-0.35 0.02979,-0.53q0.03,-0.57 0.09009,-1.14a1.47492,1.47492 0 0 1 0.01,-0.21c0.03,-0.43 0.06982,-0.86 0.10986,-1.29c0.08008,-0.86 0.18017,-1.73 0.29,-2.59c0.06006,-0.43 0.11011,-0.86 0.18017,-1.29c0.04,-0.3 0.08985,-0.61 0.1399,-0.92q0.06006,-0.465 0.15014,-0.93c0.06983,-0.41 0.1399,-0.83 0.21973,-1.25c0.04,-0.25 0.09009,-0.5 0.14014,-0.75q0.28491,-1.5 0.62988,-3c0.23,-1.01 0.49023,-2.01 0.77,-3.01c0.27,-1.01 0.57007,-2.02 0.89014,-3.03c0.1499,-0.51 0.31005,-1.01 0.49,-1.51c0.32983,-1.01 0.67993,-2.01 1.07006,-3c0.17994,-0.49 0.36988,-0.99 0.57984,-1.48c0.40014,-0.99 0.82007,-1.98 1.25,-2.95c0.22,-0.49 0.44018,-0.98 0.67993,-1.47c0.45019,-0.97 0.92017,-1.94 1.43018,-2.89c0.49,-0.97 1.02,-1.92 1.56005,-2.86s1.09986,-1.88 1.68995,-2.81c0.27,-0.46 0.56982,-0.93 0.87988,-1.38c0.6001,-0.92 1.23,-1.84 1.87012,-2.74c1.29028,-1.8202 2.68018,-3.6102 4.15015,-5.3502zm-19.18994,46.71c-0.03,0.38 -0.06006,0.76 -0.08008,1.14q0.03,-0.57 0.09009,-1.14a1.47492,1.47492 0 0 1 0.01,-0.21c-0.01,0.07 -0.01,0.14 -0.02001,0.21zm1.24,-9.23c-0.04,0.25 -0.09009,0.5 -0.13013,0.75c0.04,-0.25 0.09009,-0.5 0.14014,-0.75l-0.01001,0zm24.90991,76.15009l0,0.00991c0,0.01 0.01,0.01 0.02,0.01l-0.02,-0.01991z"/>
  <path id="svg_27" opacity="0.3" d="m519.89757,237.87905a82.45487,82.45487 0 0 1 -13.99113,-110.84027q-2.36469,2.38145 -4.572,4.98814a82.45039,82.45039 0 1 0 126.02944,106.34308q2.20231,-2.61 4.14788,-5.346a82.45472,82.45472 0 0 1 -111.61419,4.85505z"/>
 </g>
</svg>